STARTFONT 2.1
FONT -WRI-Mathematica5-Bold-R-Normal--13-130-75-75-p-70-Adobe-FontSpecific
SIZE 13 75 75
FONTBOUNDINGBOX 41 27 -2 -10
STARTPROPERTIES 16
FOUNDRY "WRI"
FAMILY_NAME "Mathematica5"
WEIGHT_NAME "Bold"
SLANT "R"
SETWIDTH_NAME "Normal"
PIXEL_SIZE 13
POINT_SIZE 130
RESOLUTION_X 75
RESOLUTION_Y 75
SPACING "p"
AVERAGE_WIDTH 70
CHARSET_REGISTRY "Adobe"
CHARSET_ENCODING "FontSpecific"
FONT_DESCENT 10
FONT_ASCENT 17
DEFAULT_CHAR 32
ENDPROPERTIES
CHARS 228
STARTCHAR Villa
ENCODING 1
SWIDTH 627 0
DWIDTH 8 0
BBX 7 11 1 -2
BITMAP
0c
36
56
fa
4a
5e
56
3c
38
34
74
ENDCHAR
STARTCHAR Kooz
ENCODING 2
SWIDTH 746 0
DWIDTH 10 0
BBX 9 11 1 -2
BITMAP
7800
d800
5400
7c00
de00
f100
cf00
cb00
c080
4480
0300
ENDCHAR
STARTCHAR Andy
ENCODING 3
SWIDTH 1000 0
DWIDTH 13 0
BBX 10 10 1 0
BITMAP
c000
8400
c400
ff80
cd00
de00
c200
0c00
5040
0f80
ENDCHAR
STARTCHAR Spooky
ENCODING 4
SWIDTH 535 0
DWIDTH 7 0
BBX 8 8 0 0
BITMAP
46
6e
36
7d
fe
7e
74
04
ENDCHAR
STARTCHAR space
ENCODING 32
SWIDTH 189 0
DWIDTH 2 0
BBX 0 0 0 0
BITMAP
ENDCHAR
STARTCHAR BckspcKey
ENCODING 33
SWIDTH 1981 0
DWIDTH 26 0
BBX 24 10 1 -2
BITMAP
ffffff
800001
a256cd
b56ab3
b44cf1
ac6291
ad6993
ab568d
800001
ffffff
ENDCHAR
STARTCHAR HomeKey
ENCODING 34
SWIDTH 1603 0
DWIDTH 21 0
BBX 19 10 1 -2
BITMAP
ffffe0
800020
ab45e0
ad6d20
b4ede0
aced20
acf520
ab55e0
800020
ffffe0
ENDCHAR
STARTCHAR PgupKey
ENCODING 35
SWIDTH 1444 0
DWIDTH 19 0
BBX 17 10 1 -2
BITMAP
ffff80
800080
b69e80
b59980
b69e80
a59880
a59880
a66880
800080
ffff80
ENDCHAR
STARTCHAR PgdwnKey
ENCODING 36
SWIDTH 1999 0
DWIDTH 26 0
BBX 24 10 1 -2
BITMAP
ffffff
800001
b66933
b5553b
b74edb
a54ed7
a556d7
a76493
800001
ffffff
ENDCHAR
STARTCHAR EndKey
ENCODING 37
SWIDTH 1187 0
DWIDTH 15 0
BBX 14 10 1 -2
BITMAP
fffc
8004
b574
a74c
b74c
a74c
a554
b564
8004
fffc
ENDCHAR
STARTCHAR FilledHeart
ENCODING 38
SWIDTH 605 0
DWIDTH 8 0
BBX 6 7 1 0
BITMAP
dc
fc
fc
fc
78
30
10
ENDCHAR
STARTCHAR Euro
ENCODING 39
SWIDTH 500 0
DWIDTH 7 0
BBX 6 9 0 0
BITMAP
38
6c
44
c0
e8
c0
c0
6c
30
ENDCHAR
STARTCHAR CapitalOE
ENCODING 40
SWIDTH 1000 0
DWIDTH 13 0
BBX 13 9 0 0
BITMAP
3ff0
6310
c350
c340
c3c0
c340
c308
6310
3ff0
ENDCHAR
STARTCHAR OE
ENCODING 41
SWIDTH 722 0
DWIDTH 9 0
BBX 10 6 0 0
BITMAP
7300
4d80
cf80
cc00
cec0
7300
ENDCHAR
STARTCHAR ABar
ENCODING 42
SWIDTH 500 0
DWIDTH 7 0
BBX 6 8 0 0
BITMAP
7c
00
38
6c
3c
4c
cc
7c
ENDCHAR
STARTCHAR ACup
ENCODING 43
SWIDTH 500 0
DWIDTH 7 0
BBX 6 9 0 0
BITMAP
24
38
00
38
6c
2c
7c
cc
7c
ENDCHAR
STARTCHAR CapitalABar
ENCODING 44
SWIDTH 722 0
DWIDTH 9 0
BBX 9 10 0 0
BITMAP
3e00
0800
0800
1c00
1c00
1600
3e00
2300
4300
e780
ENDCHAR
STARTCHAR CapitalACup
ENCODING 45
SWIDTH 722 0
DWIDTH 9 0
BBX 9 12 0 0
BITMAP
1200
1200
0c00
0800
0800
1c00
1c00
2600
3e00
2300
4300
e780
ENDCHAR
STARTCHAR CAcute
ENCODING 46
SWIDTH 444 0
DWIDTH 6 0
BBX 6 9 0 0
BITMAP
18
30
00
70
d8
c0
c0
ec
70
ENDCHAR
STARTCHAR CHacek
ENCODING 47
SWIDTH 444 0
DWIDTH 6 0
BBX 6 9 0 0
BITMAP
58
30
00
70
d8
c0
c0
ec
70
ENDCHAR
STARTCHAR ScriptZero
ENCODING 48
SWIDTH 440 0
DWIDTH 6 0
BBX 6 9 0 0
BITMAP
18
24
44
44
84
88
88
90
60
ENDCHAR
STARTCHAR ScriptOne
ENCODING 49
SWIDTH 440 0
DWIDTH 6 0
BBX 5 9 0 0
BITMAP
08
38
18
10
10
10
30
20
f8
ENDCHAR
STARTCHAR ScriptTwo
ENCODING 50
SWIDTH 440 0
DWIDTH 6 0
BBX 6 9 0 0
BITMAP
38
64
04
08
08
30
40
c4
f8
ENDCHAR
STARTCHAR ScriptThree
ENCODING 51
SWIDTH 519 0
DWIDTH 7 0
BBX 6 9 0 0
BITMAP
1c
14
04
08
3c
04
04
48
f0
ENDCHAR
STARTCHAR ScriptFour
ENCODING 52
SWIDTH 519 0
DWIDTH 7 0
BBX 5 9 1 0
BITMAP
08
18
18
28
50
90
f8
30
20
ENDCHAR
STARTCHAR ScriptFive
ENCODING 53
SWIDTH 519 0
DWIDTH 7 0
BBX 7 9 0 0
BITMAP
1e
10
20
38
04
04
04
98
e0
ENDCHAR
STARTCHAR ScriptSix
ENCODING 54
SWIDTH 519 0
DWIDTH 7 0
BBX 7 9 0 0
BITMAP
0e
10
60
78
c4
84
84
88
70
ENDCHAR
STARTCHAR ScriptSeven
ENCODING 55
SWIDTH 519 0
DWIDTH 7 0
BBX 6 9 1 0
BITMAP
0c
fc
08
10
20
40
40
80
80
ENDCHAR
STARTCHAR ScriptEight
ENCODING 56
SWIDTH 519 0
DWIDTH 7 0
BBX 7 9 0 0
BITMAP
0c
12
22
3c
28
44
84
88
70
ENDCHAR
STARTCHAR ScriptNine
ENCODING 57
SWIDTH 519 0
DWIDTH 7 0
BBX 6 9 0 0
BITMAP
18
24
44
44
4c
34
08
18
e0
ENDCHAR
STARTCHAR ODoubleAcute
ENCODING 58
SWIDTH 500 0
DWIDTH 7 0
BBX 6 9 0 0
BITMAP
3c
58
00
30
48
cc
cc
48
30
ENDCHAR
STARTCHAR CapitalODoubleAcute
ENCODING 59
SWIDTH 778 0
DWIDTH 10 0
BBX 10 12 0 0
BITMAP
0d80
1a00
2000
1e00
6180
c0c0
c0c0
c0c0
c0c0
c0c0
6180
1e00
ENDCHAR
STARTCHAR SHacek
ENCODING 60
SWIDTH 389 0
DWIDTH 5 0
BBX 5 9 0 0
BITMAP
98
70
00
78
88
e0
38
88
f0
ENDCHAR
STARTCHAR CapitalSHacek
ENCODING 61
SWIDTH 556 0
DWIDTH 7 0
BBX 6 12 1 0
BITMAP
48
38
00
74
8c
84
e0
78
3c
84
84
f8
ENDCHAR
STARTCHAR UDoubleAcute
ENCODING 62
SWIDTH 556 0
DWIDTH 7 0
BBX 7 9 0 0
BITMAP
14
38
00
fc
6c
6c
6c
6c
3e
ENDCHAR
STARTCHAR CapitalUDoubleAcute
ENCODING 63
SWIDTH 722 0
DWIDTH 9 0
BBX 9 12 0 0
BITMAP
0b00
3400
0000
f380
6100
6100
6100
6100
6100
6100
7200
1c00
ENDCHAR
STARTCHAR HSlash
ENCODING 64
SWIDTH 555 0
DWIDTH 7 0
BBX 7 9 1 0
BITMAP
60
30
f8
6c
74
6c
c8
8a
8c
ENDCHAR
STARTCHAR ScriptCapA
ENCODING 65
SWIDTH 947 0
DWIDTH 12 0
BBX 11 9 1 0
BITMAP
0fe0
1360
2240
2440
0fc0
0cc0
08c0
9060
e040
ENDCHAR
STARTCHAR ScriptCapB
ENCODING 66
SWIDTH 806 0
DWIDTH 10 0
BBX 9 9 1 0
BITMAP
1f00
6980
d180
9100
be00
3180
2180
4100
fe00
ENDCHAR
STARTCHAR ScriptCapC
ENCODING 67
SWIDTH 604 0
DWIDTH 8 0
BBX 9 10 0 -1
BITMAP
1e00
3180
6180
c000
c000
c000
c200
c200
6600
3800
ENDCHAR
STARTCHAR ScriptCapD
ENCODING 68
SWIDTH 927 0
DWIDTH 12 0
BBX 12 9 0 0
BITMAP
0f80
3460
6c30
4830
1830
1830
1060
60c0
bf00
ENDCHAR
STARTCHAR ScriptCapE
ENCODING 69
SWIDTH 644 0
DWIDTH 8 0
BBX 8 9 0 0
BITMAP
3e
23
60
1c
60
41
c1
43
7c
ENDCHAR
STARTCHAR ScriptCapF
ENCODING 70
SWIDTH 723 0
DWIDTH 9 0
BBX 11 9 1 0
BITMAP
3fe0
4400
8800
bf00
1800
1000
3000
2000
c000
ENDCHAR
STARTCHAR ScriptCapG
ENCODING 71
SWIDTH 768 0
DWIDTH 10 0
BBX 9 11 1 -2
BITMAP
0e00
1100
6100
4000
cf80
ca00
c600
ca00
7400
8c00
f800
ENDCHAR
STARTCHAR ScriptCapH
ENCODING 72
SWIDTH 960 0
DWIDTH 12 0
BBX 13 9 1 0
BITMAP
0c18
4830
9860
9fe0
1860
10c0
30c0
30e0
6040
ENDCHAR
STARTCHAR ScriptCapI
ENCODING 73
SWIDTH 584 0
DWIDTH 8 0
BBX 8 9 1 0
BITMAP
1f
24
08
18
18
18
10
20
f8
ENDCHAR
STARTCHAR ScriptCapJ
ENCODING 74
SWIDTH 792 0
DWIDTH 10 0
BBX 12 11 0 -2
BITMAP
0710
08e0
0880
1180
0900
0300
0300
0300
8200
c600
7800
ENDCHAR
STARTCHAR ScriptCapK
ENCODING 75
SWIDTH 844 0
DWIDTH 11 0
BBX 12 9 0 0
BITMAP
3c60
4c90
8d00
8a00
1e00
1b00
1100
3180
60c0
ENDCHAR
STARTCHAR ScriptCapL
ENCODING 76
SWIDTH 800 0
DWIDTH 10 0
BBX 10 10 1 -1
BITMAP
0700
0c80
0c80
0c00
0800
1800
1800
1000
f040
0f80
ENDCHAR
STARTCHAR ScriptCapM
ENCODING 77
SWIDTH 1203 0
DWIDTH 16 0
BBX 14 9 1 0
BITMAP
080c
1c18
1c38
1438
1658
2698
2718
421c
8408
ENDCHAR
STARTCHAR ScriptCapN
ENCODING 78
SWIDTH 879 0
DWIDTH 11 0
BBX 12 9 1 0
BITMAP
1030
3020
3840
3840
4c80
4680
4780
4380
8300
ENDCHAR
STARTCHAR ScriptCapO
ENCODING 79
SWIDTH 779 0
DWIDTH 10 0
BBX 10 9 0 0
BITMAP
0f00
0d80
30c0
60c0
c0c0
c180
c380
4600
3c00
ENDCHAR
STARTCHAR ScriptCapP
ENCODING 80
SWIDTH 785 0
DWIDTH 10 0
BBX 10 9 0 0
BITMAP
1f00
29c0
58c0
90c0
b380
3c00
3000
2000
c000
ENDCHAR
STARTCHAR ScriptCapQ
ENCODING 81
SWIDTH 775 0
DWIDTH 10 0
BBX 10 10 0 -1
BITMAP
0f00
0d80
30c0
60c0
c0c0
c180
d900
4600
3b80
0100
ENDCHAR
STARTCHAR ScriptCapR
ENCODING 82
SWIDTH 747 0
DWIDTH 10 0
BBX 10 9 0 0
BITMAP
1f80
79c0
91c0
9380
3c00
3600
2300
2380
4100
ENDCHAR
STARTCHAR ScriptCapS
ENCODING 83
SWIDTH 735 0
DWIDTH 10 0
BBX 9 9 0 0
BITMAP
0700
0880
1880
1c00
0700
0380
8180
c200
3c00
ENDCHAR
STARTCHAR ScriptCapT
ENCODING 84
SWIDTH 659 0
DWIDTH 9 0
BBX 12 9 0 0
BITMAP
3c10
43e0
8400
8c00
1800
1800
1800
3000
6000
ENDCHAR
STARTCHAR ScriptCapU
ENCODING 85
SWIDTH 978 0
DWIDTH 13 0
BBX 13 9 0 0
BITMAP
1e18
2618
cc30
8c30
4c30
1860
18e0
1b60
0c70
ENDCHAR
STARTCHAR ScriptCapV
ENCODING 86
SWIDTH 921 0
DWIDTH 12 0
BBX 13 9 0 0
BITMAP
1e38
6618
8610
8620
0640
0280
0380
0300
0200
ENDCHAR
STARTCHAR ScriptCapW
ENCODING 87
SWIDTH 1253 0
DWIDTH 16 0
BBX 17 9 0 0
BITMAP
142180
2c6180
cc6100
8ce200
0ca400
06a800
073000
063000
042000
ENDCHAR
STARTCHAR ScriptCapX
ENCODING 88
SWIDTH 757 0
DWIDTH 10 0
BBX 10 9 0 0
BITMAP
38c0
18c0
0d00
0e00
1c00
2600
4600
8300
8380
ENDCHAR
STARTCHAR ScriptCapY
ENCODING 89
SWIDTH 774 0
DWIDTH 10 0
BBX 11 10 0 -1
BITMAP
0060
38c0
18c0
19c0
1b80
1d80
0900
8300
c600
7800
ENDCHAR
STARTCHAR ScriptCapZ
ENCODING 90
SWIDTH 915 0
DWIDTH 12 0
BBX 12 10 0 -1
BITMAP
0030
21c0
0100
0200
0400
0c00
0800
1000
f820
07c0
ENDCHAR
STARTCHAR RightTriangleLeft
ENCODING 91
SWIDTH 600 0
DWIDTH 8 0
BBX 7 9 1 0
BITMAP
02
04
0c
0c
1c
34
64
64
fc
ENDCHAR
STARTCHAR RightTriangleRight
ENCODING 92
SWIDTH 600 0
DWIDTH 8 0
BBX 6 9 1 0
BITMAP
80
80
c0
c0
e0
b0
98
98
fc
ENDCHAR
STARTCHAR DoubleRightTriangle
ENCODING 93
SWIDTH 689 0
DWIDTH 9 0
BBX 8 9 0 0
BITMAP
0c
14
14
34
36
76
57
d5
f7
ENDCHAR
STARTCHAR Female
ENCODING 94
SWIDTH 675 0
DWIDTH 9 0
BBX 5 9 2 0
BITMAP
70
88
88
88
70
20
70
20
20
ENDCHAR
STARTCHAR Male
ENCODING 95
SWIDTH 810 0
DWIDTH 11 0
BBX 9 9 1 0
BITMAP
0080
0100
0380
3a00
4400
8200
8200
4400
3800
ENDCHAR
STARTCHAR NearlyEquals
ENCODING 96
SWIDTH 677 0
DWIDTH 9 0
BBX 6 11 1 -2
BITMAP
60
40
00
00
fc
00
00
fc
00
08
18
ENDCHAR
STARTCHAR ScriptA
ENCODING 97
SWIDTH 514 0
DWIDTH 7 0
BBX 7 6 0 0
BITMAP
3c
4c
48
88
be
58
ENDCHAR
STARTCHAR ScriptB
ENCODING 98
SWIDTH 568 0
DWIDTH 7 0
BBX 7 9 0 0
BITMAP
70
30
30
2e
76
66
44
c8
f0
ENDCHAR
STARTCHAR ScriptC
ENCODING 99
SWIDTH 465 0
DWIDTH 6 0
BBX 6 6 0 0
BITMAP
1c
64
40
c0
c8
70
ENDCHAR
STARTCHAR ScriptD
ENCODING 100
SWIDTH 625 0
DWIDTH 8 0
BBX 8 9 0 0
BITMAP
03
03
02
1e
66
46
8c
bc
ce
ENDCHAR
STARTCHAR ScriptE
ENCODING 101
SWIDTH 493 0
DWIDTH 6 0
BBX 6 6 0 0
BITMAP
1c
64
48
f0
cc
70
ENDCHAR
STARTCHAR ScriptF
ENCODING 102
SWIDTH 440 0
DWIDTH 6 0
BBX 7 10 0 -1
BITMAP
0e
10
10
3c
20
20
60
40
c0
80
ENDCHAR
STARTCHAR ScriptG
ENCODING 103
SWIDTH 586 0
DWIDTH 8 0
BBX 7 9 0 -3
BITMAP
1e
26
24
4c
5c
6c
08
90
e0
ENDCHAR
STARTCHAR ScriptH
ENCODING 104
SWIDTH 566 0
DWIDTH 7 0
BBX 7 9 0 0
BITMAP
30
30
20
6e
74
64
4c
cc
88
ENDCHAR
STARTCHAR ScriptI
ENCODING 105
SWIDTH 296 0
DWIDTH 4 0
BBX 3 8 1 0
BITMAP
20
60
60
c0
40
c0
e0
80
ENDCHAR
STARTCHAR ScriptJ
ENCODING 106
SWIDTH 341 0
DWIDTH 4 0
BBX 6 11 -2 -3
BITMAP
04
08
04
1c
08
18
18
10
10
a0
c0
ENDCHAR
STARTCHAR ScriptK
ENCODING 107
SWIDTH 490 0
DWIDTH 6 0
BBX 6 9 0 0
BITMAP
60
20
60
6c
58
70
50
d8
98
ENDCHAR
STARTCHAR ScriptL
ENCODING 108
SWIDTH 336 0
DWIDTH 4 0
BBX 3 9 1 0
BITMAP
20
60
60
40
40
40
c0
e0
80
ENDCHAR
STARTCHAR ScriptM
ENCODING 109
SWIDTH 800 0
DWIDTH 10 0
BBX 10 6 1 0
BITMAP
d980
6b80
4d00
c900
9b40
9200
ENDCHAR
STARTCHAR ScriptN
ENCODING 110
SWIDTH 545 0
DWIDTH 7 0
BBX 7 6 1 0
BITMAP
ec
7c
68
48
ca
88
ENDCHAR
STARTCHAR ScriptO
ENCODING 111
SWIDTH 551 0
DWIDTH 7 0
BBX 6 6 1 0
BITMAP
38
44
84
84
88
70
ENDCHAR
STARTCHAR ScriptP
ENCODING 112
SWIDTH 575 0
DWIDTH 7 0
BBX 7 10 0 -3
BITMAP
20
ee
76
66
44
48
f0
c0
80
80
ENDCHAR
STARTCHAR ScriptQ
ENCODING 113
SWIDTH 550 0
DWIDTH 7 0
BBX 7 9 0 -3
BITMAP
1c
66
4c
8c
bc
cc
18
18
10
ENDCHAR
STARTCHAR ScriptR
ENCODING 114
SWIDTH 429 0
DWIDTH 6 0
BBX 5 6 0 0
BITMAP
e8
70
40
40
c0
80
ENDCHAR
STARTCHAR ScriptS
ENCODING 115
SWIDTH 416 0
DWIDTH 5 0
BBX 5 6 0 0
BITMAP
38
48
60
38
58
e0
ENDCHAR
STARTCHAR ScriptT
ENCODING 116
SWIDTH 347 0
DWIDTH 5 0
BBX 5 8 0 0
BITMAP
30
30
78
60
60
c0
c8
f0
ENDCHAR
STARTCHAR ScriptU
ENCODING 117
SWIDTH 566 0
DWIDTH 7 0
BBX 7 6 0 0
BITMAP
a4
64
4c
cc
de
e8
ENDCHAR
STARTCHAR ScriptV
ENCODING 118
SWIDTH 536 0
DWIDTH 7 0
BBX 6 6 1 0
BITMAP
cc
44
68
68
70
60
ENDCHAR
STARTCHAR ScriptW
ENCODING 119
SWIDTH 806 0
DWIDTH 10 0
BBX 10 6 0 0
BITMAP
44c0
cc80
5c80
5500
6600
4400
ENDCHAR
STARTCHAR ScriptX
ENCODING 120
SWIDTH 598 0
DWIDTH 8 0
BBX 8 6 0 0
BITMAP
33
1a
1c
2c
4c
a6
ENDCHAR
STARTCHAR ScriptY
ENCODING 121
SWIDTH 570 0
DWIDTH 7 0
BBX 7 9 0 -3
BITMAP
62
26
46
4c
54
6c
08
90
e0
ENDCHAR
STARTCHAR ScriptZ
ENCODING 122
SWIDTH 571 0
DWIDTH 7 0
BBX 7 6 1 0
BITMAP
74
f8
10
20
c2
3c
ENDCHAR
STARTCHAR ScriptAltL
ENCODING 123
SWIDTH 458 0
DWIDTH 6 0
BBX 5 8 1 0
BITMAP
18
68
50
70
c0
80
80
c0
ENDCHAR
STARTCHAR LogicalNand
ENCODING 124
SWIDTH 669 0
DWIDTH 9 0
BBX 7 9 1 0
BITMAP
fe
00
38
28
44
44
44
82
82
ENDCHAR
STARTCHAR Nand2
ENCODING 125
SWIDTH 840 0
DWIDTH 11 0
BBX 9 12 1 -2
BITMAP
ff80
0000
0000
1c00
2200
2200
2200
4300
4100
4100
8180
8080
ENDCHAR
STARTCHAR Nand3
ENCODING 126
SWIDTH 1256 0
DWIDTH 16 0
BBX 15 20 1 -6
BITMAP
7ffc
0000
0000
0000
07c0
0440
0c60
0820
0820
1830
1010
1010
3018
2008
2008
600c
4004
4004
c006
8006
ENDCHAR
STARTCHAR DEL
ENCODING 127
SWIDTH 189 0
DWIDTH 2 0
BBX 0 0 0 0
BITMAP
ENDCHAR
STARTCHAR LogicalNor
ENCODING 128
SWIDTH 669 0
DWIDTH 9 0
BBX 7 9 1 0
BITMAP
fe
00
82
c6
44
44
4c
28
38
ENDCHAR
STARTCHAR Nor2
ENCODING 129
SWIDTH 840 0
DWIDTH 11 0
BBX 9 12 1 -2
BITMAP
ff80
0000
8080
8080
c180
4100
4100
6300
2200
2200
2200
1c00
ENDCHAR
STARTCHAR Nor3
ENCODING 130
SWIDTH 1256 0
DWIDTH 16 0
BBX 15 20 1 -6
BITMAP
7ffc
0000
0000
0000
8002
c006
c006
4004
600c
2008
2008
3018
1010
1010
1830
0820
0820
0c60
0440
07c0
ENDCHAR
STARTCHAR LogicalXor
ENCODING 131
SWIDTH 669 0
DWIDTH 9 0
BBX 7 9 1 0
BITMAP
82
82
44
44
44
28
38
00
fe
ENDCHAR
STARTCHAR Xor2
ENCODING 132
SWIDTH 840 0
DWIDTH 11 0
BBX 9 12 1 -2
BITMAP
8080
c080
c180
4100
4100
6300
2200
2200
2200
1c00
0000
ff80
ENDCHAR
STARTCHAR Xor3
ENCODING 133
SWIDTH 1256 0
DWIDTH 16 0
BBX 15 20 1 -6
BITMAP
c006
c006
4004
4004
600c
2008
2008
3018
1010
1010
1830
0820
0820
0c60
0440
07c0
0000
0000
0000
7ffc
ENDCHAR
STARTCHAR ConstantC
ENCODING 134
SWIDTH 572 0
DWIDTH 7 0
BBX 7 6 0 0
BITMAP
1e
7a
70
e0
e2
7c
ENDCHAR
STARTCHAR LongEqual
ENCODING 135
SWIDTH 856 0
DWIDTH 11 0
BBX 9 4 1 1
BITMAP
ff80
0000
0000
ff80
ENDCHAR
STARTCHAR Diffd2
ENCODING 136
SWIDTH 500 0
DWIDTH 7 0
BBX 6 9 0 0
BITMAP
0c
04
04
1c
28
68
c8
dc
e8
ENDCHAR
STARTCHAR Expe2
ENCODING 137
SWIDTH 444 0
DWIDTH 6 0
BBX 5 6 0 0
BITMAP
10
28
58
e0
c8
70
ENDCHAR
STARTCHAR Imagi2
ENCODING 138
SWIDTH 278 0
DWIDTH 4 0
BBX 3 9 1 0
BITMAP
60
60
00
c0
c0
c0
80
a0
c0
ENDCHAR
STARTCHAR Imagj2
ENCODING 139
SWIDTH 278 0
DWIDTH 4 0
BBX 6 12 -2 -3
BITMAP
0c
0c
00
18
18
18
10
10
30
20
a0
40
ENDCHAR
STARTCHAR CapitalCAcute
ENCODING 140
SWIDTH 722 0
DWIDTH 9 0
BBX 9 12 0 0
BITMAP
0600
0c00
0000
3e80
6180
c080
c000
c000
c000
c000
6180
3e00
ENDCHAR
STARTCHAR CapitalCHacek
ENCODING 141
SWIDTH 722 0
DWIDTH 9 0
BBX 9 12 0 0
BITMAP
3200
1c00
0000
3e80
6180
c080
c000
c000
c000
c000
6180
3e00
ENDCHAR
STARTCHAR EBar
ENCODING 142
SWIDTH 444 0
DWIDTH 6 0
BBX 6 8 0 0
BITMAP
f8
00
70
d8
f8
c0
e4
78
ENDCHAR
STARTCHAR ECup
ENCODING 143
SWIDTH 444 0
DWIDTH 6 0
BBX 6 9 0 0
BITMAP
48
70
00
70
d8
f8
c0
e4
78
ENDCHAR
STARTCHAR CapitalEBar
ENCODING 144
SWIDTH 667 0
DWIDTH 9 0
BBX 9 10 0 0
BITMAP
3c00
ff00
6300
6100
6400
7c00
6400
6480
6100
ff00
ENDCHAR
STARTCHAR CapitalECup
ENCODING 145
SWIDTH 667 0
DWIDTH 9 0
BBX 9 12 0 0
BITMAP
2200
2400
1800
ff00
6300
6100
6400
7c00
6400
6480
6100
ff00
ENDCHAR
STARTCHAR ICup
ENCODING 146
SWIDTH 278 0
DWIDTH 4 0
BBX 4 9 0 0
BITMAP
90
e0
00
e0
60
60
60
60
e0
ENDCHAR
STARTCHAR CapitalICup
ENCODING 147
SWIDTH 389 0
DWIDTH 5 0
BBX 4 11 0 0
BITMAP
90
60
f0
60
60
60
60
60
60
60
f0
ENDCHAR
STARTCHAR LSlash
ENCODING 148
SWIDTH 278 0
DWIDTH 4 0
BBX 4 9 0 0
BITMAP
e0
60
70
60
60
e0
60
60
e0
ENDCHAR
STARTCHAR CapitalLSlash
ENCODING 149
SWIDTH 667 0
DWIDTH 9 0
BBX 9 9 0 0
BITMAP
f800
6000
6000
7800
6000
e000
6080
6100
ff00
ENDCHAR
STARTCHAR Mercury
ENCODING 150
SWIDTH 410 0
DWIDTH 5 0
BBX 4 9 1 0
BITMAP
90
f0
f0
90
90
f0
60
f0
60
ENDCHAR
STARTCHAR Venus
ENCODING 151
SWIDTH 531 0
DWIDTH 7 0
BBX 6 9 1 0
BITMAP
78
cc
84
84
84
78
30
78
30
ENDCHAR
STARTCHAR Earth
ENCODING 152
SWIDTH 545 0
DWIDTH 7 0
BBX 6 9 1 0
BITMAP
30
78
30
78
84
84
84
cc
78
ENDCHAR
STARTCHAR Mars
ENCODING 153
SWIDTH 649 0
DWIDTH 8 0
BBX 7 8 1 0
BITMAP
0e
06
fe
8e
84
84
c8
70
ENDCHAR
STARTCHAR Jupiter
ENCODING 154
SWIDTH 679 0
DWIDTH 9 0
BBX 7 11 1 -2
BITMAP
02
7a
ce
86
86
06
0e
1a
fe
02
02
ENDCHAR
STARTCHAR Saturn
ENCODING 155
SWIDTH 583 0
DWIDTH 8 0
BBX 6 9 1 0
BITMAP
c0
e0
c0
fc
c4
c4
c4
c8
c8
ENDCHAR
STARTCHAR Uranus
ENCODING 156
SWIDTH 634 0
DWIDTH 8 0
BBX 7 9 1 0
BITMAP
d6
56
7e
56
56
d6
38
28
38
ENDCHAR
STARTCHAR Neptune
ENCODING 157
SWIDTH 791 0
DWIDTH 10 0
BBX 10 11 1 -2
BITMAP
1c00
1c00
eb80
eb40
4900
4900
6a00
1c00
3e00
0800
0800
ENDCHAR
STARTCHAR Pluto
ENCODING 158
SWIDTH 589 0
DWIDTH 8 0
BBX 6 11 1 -2
BITMAP
f8
84
84
84
84
8c
f8
80
80
80
fc
ENDCHAR
STARTCHAR udieresis
ENCODING 159
SWIDTH 772 0
DWIDTH 10 0
BBX 10 9 0 0
BITMAP
1e00
6180
4080
8040
8c40
8c40
c0c0
6180
1e00
ENDCHAR
STARTCHAR dagger
ENCODING 160
SWIDTH 380 0
DWIDTH 5 0
BBX 5 6 1 0
BITMAP
88
90
b0
f0
90
88
ENDCHAR
STARTCHAR LastPage
ENCODING 161
SWIDTH 380 0
DWIDTH 5 0
BBX 3 6 1 0
BITMAP
a0
a0
e0
e0
a0
a0
ENDCHAR
STARTCHAR SolidLeftTriangle
ENCODING 162
SWIDTH 634 0
DWIDTH 8 0
BBX 6 7 1 0
BITMAP
04
1c
3c
fc
3c
1c
04
ENDCHAR
STARTCHAR SolidRightTriangle
ENCODING 163
SWIDTH 634 0
DWIDTH 8 0
BBX 6 7 1 0
BITMAP
80
e0
f0
fc
f0
e0
80
ENDCHAR
STARTCHAR QuarterNote
ENCODING 164
SWIDTH 400 0
DWIDTH 5 0
BBX 4 9 1 0
BITMAP
10
10
10
10
10
10
f0
f0
e0
ENDCHAR
STARTCHAR EigthNote
ENCODING 165
SWIDTH 616 0
DWIDTH 8 0
BBX 7 9 1 0
BITMAP
18
14
12
10
10
10
f0
f0
e0
ENDCHAR
STARTCHAR BeamedEighthNote
ENCODING 166
SWIDTH 905 0
DWIDTH 12 0
BBX 10 9 1 0
BITMAP
1fc0
1040
1040
1040
1040
1040
f3c0
f7c0
e380
ENDCHAR
STARTCHAR BeamedSixteenthNote
ENCODING 167
SWIDTH 905 0
DWIDTH 12 0
BBX 10 9 1 0
BITMAP
1fc0
1fc0
1040
1040
1040
1040
f3c0
f7c0
e380
ENDCHAR
STARTCHAR EntityStart
ENCODING 168
SWIDTH 778 0
DWIDTH 10 0
BBX 8 10 1 -2
BITMAP
ff
82
92
aa
b6
da
d2
be
82
ff
ENDCHAR
STARTCHAR EntityEnd
ENCODING 169
SWIDTH 778 0
DWIDTH 10 0
BBX 9 10 1 -2
BITMAP
ff80
2080
2080
2080
2880
2080
2880
2880
2880
ff80
ENDCHAR
STARTCHAR trademark
ENCODING 170
SWIDTH 674 0
DWIDTH 9 0
BBX 7 8 2 1
BITMAP
02
04
04
08
90
a0
60
60
ENDCHAR
STARTCHAR acute
ENCODING 171
SWIDTH 674 0
DWIDTH 9 0
BBX 8 9 1 0
BITMAP
01
02
fe
86
8a
aa
b2
82
fe
ENDCHAR
STARTCHAR dieresis
ENCODING 172
SWIDTH 364 0
DWIDTH 5 0
BBX 3 4 1 5
BITMAP
e0
40
40
c0
ENDCHAR
STARTCHAR notequal
ENCODING 173
SWIDTH 364 0
DWIDTH 5 0
BBX 5 4 0 5
BITMAP
20
f8
f8
20
ENDCHAR
STARTCHAR AE
ENCODING 174
SWIDTH 429 0
DWIDTH 6 0
BBX 3 4 1 5
BITMAP
a0
a0
e0
a0
ENDCHAR
STARTCHAR Oslash
ENCODING 175
SWIDTH 597 0
DWIDTH 8 0
BBX 4 8 3 0
BITMAP
10
20
60
40
40
c0
c0
c0
ENDCHAR
STARTCHAR infinity
ENCODING 176
SWIDTH 597 0
DWIDTH 8 0
BBX 5 9 0 -1
BITMAP
18
18
10
30
c0
30
10
18
18
ENDCHAR
STARTCHAR plusminus
ENCODING 177
SWIDTH 597 0
DWIDTH 8 0
BBX 4 9 3 0
BITMAP
c0
c0
c0
40
40
40
60
20
10
ENDCHAR
STARTCHAR lessequal
ENCODING 178
SWIDTH 597 0
DWIDTH 8 0
BBX 2 4 3 0
BITMAP
c0
c0
c0
c0
ENDCHAR
STARTCHAR greaterequal
ENCODING 179
SWIDTH 372 0
DWIDTH 5 0
BBX 3 11 1 -2
BITMAP
20
40
40
40
40
c0
40
40
40
40
20
ENDCHAR
STARTCHAR yen
ENCODING 180
SWIDTH 384 0
DWIDTH 5 0
BBX 3 17 1 -5
BITMAP
20
40
40
40
40
40
40
40
80
40
40
40
40
40
40
40
20
ENDCHAR
STARTCHAR mu
ENCODING 181
SWIDTH 484 0
DWIDTH 6 0
BBX 4 22 1 -8
BITMAP
10
20
40
40
40
40
40
40
40
40
80
80
40
40
40
40
40
40
40
40
20
10
ENDCHAR
STARTCHAR partialdiff
ENCODING 182
SWIDTH 599 0
DWIDTH 8 0
BBX 6 27 1 -10
BITMAP
04
08
10
30
30
30
30
30
30
30
30
20
20
c0
20
20
30
30
30
30
30
30
30
30
10
08
04
ENDCHAR
STARTCHAR summation
ENCODING 183
SWIDTH 870 0
DWIDTH 11 0
BBX 10 6 1 0
BITMAP
2000
6000
f640
6000
2000
2000
ENDCHAR
STARTCHAR product
ENCODING 184
SWIDTH 590 0
DWIDTH 8 0
BBX 6 10 1 0
BITMAP
20
70
78
ac
20
00
20
20
00
20
ENDCHAR
STARTCHAR pi
ENCODING 185
SWIDTH 870 0
DWIDTH 11 0
BBX 10 6 1 0
BITMAP
0200
0100
b7c0
0180
0300
0200
ENDCHAR
STARTCHAR integral
ENCODING 186
SWIDTH 590 0
DWIDTH 8 0
BBX 6 10 1 0
BITMAP
20
00
00
20
20
00
20
ec
78
20
ENDCHAR
STARTCHAR ordfeminine
ENCODING 187
SWIDTH 900 0
DWIDTH 12 0
BBX 10 5 1 1
BITMAP
ffc0
8040
c940
8040
ffc0
ENDCHAR
STARTCHAR ordmasculine
ENCODING 188
SWIDTH 900 0
DWIDTH 12 0
BBX 4 10 4 -2
BITMAP
f0
b0
90
90
b0
90
90
b0
90
f0
ENDCHAR
STARTCHAR Omega
ENCODING 189
SWIDTH 900 0
DWIDTH 12 0
BBX 10 10 1 -2
BITMAP
a000
9000
f800
6400
3600
1d00
0c80
07c0
0300
01c0
ENDCHAR
STARTCHAR ae
ENCODING 190
SWIDTH 364 0
DWIDTH 5 0
BBX 3 5 1 4
BITMAP
40
e0
40
40
40
ENDCHAR
STARTCHAR oslash
ENCODING 191
SWIDTH 189 0
DWIDTH 2 0
BBX 0 0 0 0
BITMAP
ENDCHAR
STARTCHAR questiondown
ENCODING 192
SWIDTH 189 0
DWIDTH 2 0
BBX 0 0 0 0
BITMAP
ENDCHAR
STARTCHAR exclamdown
ENCODING 193
SWIDTH 189 0
DWIDTH 2 0
BBX 0 0 0 0
BITMAP
ENDCHAR
STARTCHAR logicalnot
ENCODING 194
SWIDTH 189 0
DWIDTH 2 0
BBX 0 0 0 0
BITMAP
ENDCHAR
STARTCHAR radical
ENCODING 195
SWIDTH 189 0
DWIDTH 2 0
BBX 0 0 0 0
BITMAP
ENDCHAR
STARTCHAR florin
ENCODING 196
SWIDTH 189 0
DWIDTH 2 0
BBX 0 0 0 0
BITMAP
ENDCHAR
STARTCHAR approxequal
ENCODING 197
SWIDTH 189 0
DWIDTH 2 0
BBX 0 0 0 0
BITMAP
ENDCHAR
STARTCHAR Delta
ENCODING 198
SWIDTH 189 0
DWIDTH 2 0
BBX 0 0 0 0
BITMAP
ENDCHAR
STARTCHAR guillemotleft
ENCODING 199
SWIDTH 189 0
DWIDTH 2 0
BBX 0 0 0 0
BITMAP
ENDCHAR
STARTCHAR guillemotright
ENCODING 200
SWIDTH 189 0
DWIDTH 2 0
BBX 0 0 0 0
BITMAP
ENDCHAR
STARTCHAR ellipsis
ENCODING 201
SWIDTH 189 0
DWIDTH 2 0
BBX 0 0 0 0
BITMAP
ENDCHAR
STARTCHAR nbspace
ENCODING 202
SWIDTH 189 0
DWIDTH 2 0
BBX 0 0 0 0
BITMAP
ENDCHAR
STARTCHAR Agrave
ENCODING 203
SWIDTH 189 0
DWIDTH 2 0
BBX 0 0 0 0
BITMAP
ENDCHAR
STARTCHAR Atilde
ENCODING 204
SWIDTH 189 0
DWIDTH 2 0
BBX 0 0 0 0
BITMAP
ENDCHAR
STARTCHAR Otilde
ENCODING 205
SWIDTH 189 0
DWIDTH 2 0
BBX 0 0 0 0
BITMAP
ENDCHAR
STARTCHAR parenright
ENCODING 206
SWIDTH 189 0
DWIDTH 2 0
BBX 0 0 0 0
BITMAP
ENDCHAR
STARTCHAR oe
ENCODING 207
SWIDTH 189 0
DWIDTH 2 0
BBX 0 0 0 0
BITMAP
ENDCHAR
STARTCHAR endash
ENCODING 208
SWIDTH 189 0
DWIDTH 2 0
BBX 0 0 0 0
BITMAP
ENDCHAR
STARTCHAR emdash
ENCODING 209
SWIDTH 189 0
DWIDTH 2 0
BBX 0 0 0 0
BITMAP
ENDCHAR
STARTCHAR quotedblleft
ENCODING 210
SWIDTH 189 0
DWIDTH 2 0
BBX 0 0 0 0
BITMAP
ENDCHAR
STARTCHAR quotedblright
ENCODING 211
SWIDTH 189 0
DWIDTH 2 0
BBX 0 0 0 0
BITMAP
ENDCHAR
STARTCHAR quoteleft
ENCODING 212
SWIDTH 189 0
DWIDTH 2 0
BBX 0 0 0 0
BITMAP
ENDCHAR
STARTCHAR quoteright
ENCODING 213
SWIDTH 189 0
DWIDTH 2 0
BBX 0 0 0 0
BITMAP
ENDCHAR
STARTCHAR divide
ENCODING 214
SWIDTH 189 0
DWIDTH 2 0
BBX 0 0 0 0
BITMAP
ENDCHAR
STARTCHAR lozenge
ENCODING 215
SWIDTH 189 0
DWIDTH 2 0
BBX 0 0 0 0
BITMAP
ENDCHAR
STARTCHAR ydieresis
ENCODING 216
SWIDTH 189 0
DWIDTH 2 0
BBX 0 0 0 0
BITMAP
ENDCHAR
STARTCHAR Ydieresis
ENCODING 217
SWIDTH 189 0
DWIDTH 2 0
BBX 0 0 0 0
BITMAP
ENDCHAR
STARTCHAR fraction
ENCODING 218
SWIDTH 189 0
DWIDTH 2 0
BBX 0 0 0 0
BITMAP
ENDCHAR
STARTCHAR currency
ENCODING 219
SWIDTH 189 0
DWIDTH 2 0
BBX 0 0 0 0
BITMAP
ENDCHAR
STARTCHAR guilsinglleft
ENCODING 220
SWIDTH 189 0
DWIDTH 2 0
BBX 0 0 0 0
BITMAP
ENDCHAR
STARTCHAR guilsinglright
ENCODING 221
SWIDTH 189 0
DWIDTH 2 0
BBX 0 0 0 0
BITMAP
ENDCHAR
STARTCHAR fi
ENCODING 222
SWIDTH 189 0
DWIDTH 2 0
BBX 0 0 0 0
BITMAP
ENDCHAR
STARTCHAR fl
ENCODING 223
SWIDTH 189 0
DWIDTH 2 0
BBX 0 0 0 0
BITMAP
ENDCHAR
STARTCHAR daggerdbl
ENCODING 224
SWIDTH 189 0
DWIDTH 2 0
BBX 0 0 0 0
BITMAP
ENDCHAR
STARTCHAR periodcentered
ENCODING 225
SWIDTH 189 0
DWIDTH 2 0
BBX 0 0 0 0
BITMAP
ENDCHAR
STARTCHAR quotesinglbase
ENCODING 226
SWIDTH 189 0
DWIDTH 2 0
BBX 0 0 0 0
BITMAP
ENDCHAR
STARTCHAR quotedblbase
ENCODING 227
SWIDTH 189 0
DWIDTH 2 0
BBX 0 0 0 0
BITMAP
ENDCHAR
STARTCHAR perthousand
ENCODING 228
SWIDTH 189 0
DWIDTH 2 0
BBX 0 0 0 0
BITMAP
ENDCHAR
STARTCHAR Acircumflex
ENCODING 229
SWIDTH 189 0
DWIDTH 2 0
BBX 0 0 0 0
BITMAP
ENDCHAR
STARTCHAR Ecircumflex
ENCODING 230
SWIDTH 189 0
DWIDTH 2 0
BBX 0 0 0 0
BITMAP
ENDCHAR
STARTCHAR Aacute
ENCODING 231
SWIDTH 189 0
DWIDTH 2 0
BBX 0 0 0 0
BITMAP
ENDCHAR
STARTCHAR Edieresis
ENCODING 232
SWIDTH 189 0
DWIDTH 2 0
BBX 0 0 0 0
BITMAP
ENDCHAR
STARTCHAR Egrave
ENCODING 233
SWIDTH 189 0
DWIDTH 2 0
BBX 0 0 0 0
BITMAP
ENDCHAR
STARTCHAR Iacute
ENCODING 234
SWIDTH 189 0
DWIDTH 2 0
BBX 0 0 0 0
BITMAP
ENDCHAR
STARTCHAR Icircumflex
ENCODING 235
SWIDTH 189 0
DWIDTH 2 0
BBX 0 0 0 0
BITMAP
ENDCHAR
STARTCHAR Idieresis
ENCODING 236
SWIDTH 189 0
DWIDTH 2 0
BBX 0 0 0 0
BITMAP
ENDCHAR
STARTCHAR Igrave
ENCODING 237
SWIDTH 189 0
DWIDTH 2 0
BBX 0 0 0 0
BITMAP
ENDCHAR
STARTCHAR Oacute
ENCODING 238
SWIDTH 189 0
DWIDTH 2 0
BBX 0 0 0 0
BITMAP
ENDCHAR
STARTCHAR Ocircumflex
ENCODING 239
SWIDTH 189 0
DWIDTH 2 0
BBX 0 0 0 0
BITMAP
ENDCHAR
STARTCHAR apple
ENCODING 240
SWIDTH 189 0
DWIDTH 2 0
BBX 0 0 0 0
BITMAP
ENDCHAR
STARTCHAR Ograve
ENCODING 241
SWIDTH 189 0
DWIDTH 2 0
BBX 0 0 0 0
BITMAP
ENDCHAR
STARTCHAR Uacute
ENCODING 242
SWIDTH 189 0
DWIDTH 2 0
BBX 0 0 0 0
BITMAP
ENDCHAR
STARTCHAR Ucircumflex
ENCODING 243
SWIDTH 189 0
DWIDTH 2 0
BBX 0 0 0 0
BITMAP
ENDCHAR
STARTCHAR Ugrave
ENCODING 244
SWIDTH 189 0
DWIDTH 2 0
BBX 0 0 0 0
BITMAP
ENDCHAR
STARTCHAR dotlessi
ENCODING 245
SWIDTH 189 0
DWIDTH 2 0
BBX 0 0 0 0
BITMAP
ENDCHAR
STARTCHAR circumflex
ENCODING 246
SWIDTH 189 0
DWIDTH 2 0
BBX 0 0 0 0
BITMAP
ENDCHAR
STARTCHAR CurlyQuote
ENCODING 247
SWIDTH 378 0
DWIDTH 5 0
BBX 3 4 1 5
BITMAP
e0
e0
20
40
ENDCHAR
STARTCHAR CurlyDblQuote
ENCODING 248
SWIDTH 524 0
DWIDTH 7 0
BBX 5 4 1 5
BITMAP
d8
d8
48
90
ENDCHAR
STARTCHAR CurlyBackQuote
ENCODING 249
SWIDTH 378 0
DWIDTH 5 0
BBX 2 5 1 5
BITMAP
40
40
80
c0
c0
ENDCHAR
STARTCHAR CurlyDblBackQuote
ENCODING 250
SWIDTH 524 0
DWIDTH 7 0
BBX 6 5 0 5
BITMAP
44
44
88
cc
cc
ENDCHAR
STARTCHAR StrikeCircle
ENCODING 251
SWIDTH 600 0
DWIDTH 8 0
BBX 8 7 0 0
BITMAP
3c
42
81
81
81
42
3c
ENDCHAR
STARTCHAR StrikeSquare
ENCODING 252
SWIDTH 600 0
DWIDTH 8 0
BBX 7 7 0 0
BITMAP
fe
82
82
82
82
82
fe
ENDCHAR
STARTCHAR StrikeTriangle
ENCODING 253
SWIDTH 600 0
DWIDTH 8 0
BBX 6 7 1 0
BITMAP
10
30
28
48
44
84
fc
ENDCHAR
STARTCHAR MathLogo1
ENCODING 254
SWIDTH 2776 0
DWIDTH 36 0
BBX 36 9 1 0
BITMAP
30e0000000
10c27fdbf0
1146928910
3986108920
2a8a10f1c0
2a8e211220
4c92211200
4891211210
c9f3f3bfe0
ENDCHAR
STARTCHAR MathLogo2
ENCODING 255
SWIDTH 2981 0
DWIDTH 39 0
BBX 39 8 0 0
BITMAP
71c4fdcc2a
318d22926e
330c20a16c
331420a0a0
551c4120f0
5524412110
4922412510
cbe6e3bb38
ENDCHAR
ENDFONT
